<svg xmlns="http://www.w3.org/2000/svg" version="1.1" viewBox="0 0 350 175"><!--Created with parliamentarch (https://github.com/Gouvernathor/ParliamentArch-TS)--><g style="fill: #DD0000;" id="group-0"><circle cx="3.8466235773609885" cy="171.19565217391298" r="3.0434782608695654"></circle><circle cx="11.457286063660089" cy="171.19565217391298" r="3.0434782608695654"></circle><circle cx="19.068140518006118" cy="171.19565217391303" r="3.0434782608695654"></circle><circle cx="26.679216492037494" cy="171.19565217391303" r="3.0434782608695654"></circle><circle cx="34.29054993222988" cy="171.19565217391303" r="3.0434782608695654"></circle><circle cx="41.90218500896595" cy="171.19565217391303" r="3.0434782608695654"></circle><circle cx="49.51417661163643" cy="171.19565217391306" r="3.0434782608695654"></circle><circle cx="57.12659381107861" cy="171.19565217391298" r="3.0434782608695654"></circle><circle cx="64.73952475725427" cy="171.19565217391303" r="3.0434782608695654"></circle><circle cx="72.35308375801709" cy="171.19565217391303" r="3.0434782608695654"></circle><circle cx="79.96742176350266" cy="171.195652173913" r="3.0434782608695654"></circle><circle cx="87.58274233529087" cy="171.19565217391303" r="3.0434782608695654"></circle><circle cx="4.240354521352149" cy="162.78956187281085" r="3.0434782608695654"></circle><circle cx="11.870987931686939" cy="162.76816589134978" r="3.0434782608695654"></circle><circle cx="19.503947324009093" cy="162.7445740147639" r="3.0434782608695654"></circle><circle cx="27.13962356036873" cy="162.718429989278" r="3.0434782608695654"></circle><circle cx="34.76426289630787" cy="162.85255418862505" r="3.0434782608695654"></circle></g><g style="fill: #cc2443;" id="group-1"><circle cx="42.42118344072942" cy="162.65662860023" r="3.0434782608695654"></circle><circle cx="50.06844202577958" cy="162.6197432994534" r="3.0434782608695654"></circle><circle cx="57.70027276302955" cy="162.7776050181384" r="3.0434782608695654"></circle><circle cx="65.35661104100575" cy="162.74550202069884" r="3.0434782608695654"></circle><circle cx="73.02068395403457" cy="162.70847547422994" r="3.0434782608695654"></circle><circle cx="5.046695349360741" cy="154.41297589309178" r="3.0434782608695654"></circle><circle cx="12.718675348414795" cy="154.3732209646739" r="3.0434782608695654"></circle><circle cx="80.6945431889947" cy="162.66530080117653" r="3.0434782608695654"></circle><circle cx="20.397441401687676" cy="154.32956849145276" r="3.0434782608695654"></circle><circle cx="88.3433093097327" cy="162.8810908654557" r="3.0434782608695654"></circle><circle cx="28.0841455195526" cy="154.2814193276245" r="3.0434782608695654"></circle><circle cx="35.732226635777444" cy="154.55226900295074" r="3.0434782608695654"></circle><circle cx="43.48744405418024" cy="154.16855630622288" r="3.0434782608695654"></circle><circle cx="51.20810980436615" cy="154.10184564059398" r="3.0434782608695654"></circle><circle cx="6.263697684212613" cy="146.08613474392217" r="3.0434782608695654"></circle><circle cx="58.87436209220544" cy="154.42211941262923" r="3.0434782608695654"></circle><circle cx="13.998093141179895" cy="146.0331511574147" r="3.0434782608695654"></circle><circle cx="21.74599283948058" cy="145.97540434153132" r="3.0434782608695654"></circle><circle cx="66.62034060029406" cy="154.367625159916" r="3.0434782608695654"></circle><circle cx="29.50968987681863" cy="145.9122441041211" r="3.0434782608695654"></circle><circle cx="74.38881857933742" cy="154.30573389779119" r="3.0434782608695654"></circle><circle cx="37.19102963201529" cy="146.32405037540943" r="3.0434782608695654"></circle><circle cx="7.888420859271769" cy="137.8291587350576" r="3.0434782608695654"></circle><circle cx="82.18580697697713" cy="154.23489556628962" r="3.0434782608695654"></circle><circle cx="45.09656551187471" cy="145.76647257071565" r="3.0434782608695654"></circle><circle cx="15.705837569435054" cy="137.770144244301" r="3.0434782608695654"></circle><circle cx="89.89288811980998" cy="154.67687259763352" r="3.0434782608695654"></circle><circle cx="52.927839709724566" cy="145.6818722306023" r="3.0434782608695654"></circle><circle cx="23.54563230943598" cy="137.70667122197892" r="3.0434782608695654"></circle><circle cx="60.64285210503215" cy="146.17196374553495" r="3.0434782608695654"></circle><circle cx="31.411589206940793" cy="137.63830613152808" r="3.0434782608695654"></circle><circle cx="39.13553043871876" cy="138.196898071116" r="3.0434782608695654"></circle><circle cx="68.52326034351589" cy="146.11143175470096" r="3.0434782608695654"></circle><circle cx="9.916939024030938" cy="129.66199935974345" r="3.0434782608695654"></circle><circle cx="17.837365380000744" cy="129.60618298329635" r="3.0434782608695654"></circle><circle cx="47.24190564168917" cy="137.4850597267925" r="3.0434782608695654"></circle><circle cx="76.4480894005771" cy="146.04514904935846" r="3.0434782608695654"></circle><circle cx="25.79106275053643" cy="129.54770733197518" r="3.0434782608695654"></circle><circle cx="55.219573458030254" cy="137.39927725081316" r="3.0434782608695654"></circle><circle cx="84.42912965028356" cy="145.9727467239372" r="3.0434782608695654"></circle><circle cx="33.78361643401966" cy="129.48669540295222" r="3.0434782608695654"></circle><circle cx="12.344350630221278" cy="121.60439108553007" r="3.0434782608695654"></circle><circle cx="62.99669060862967" cy="138.06936726318818" r="3.0434782608695654"></circle><circle cx="41.55887580256371" cy="130.19945565419403" r="3.0434782608695654"></circle><circle cx="92.21736980276792" cy="146.65769703026373" r="3.0434782608695654"></circle><circle cx="20.387005893856074" cy="121.56298663305674" r="3.0434782608695654"></circle><circle cx="71.05414743026539" cy="138.02561431627305" r="3.0434782608695654"></circle><circle cx="49.91460885454556" cy="129.35850199918886" r="3.0434782608695654"></circle><circle cx="28.47567496007459" cy="121.52252777581553" r="3.0434782608695654"></circle><circle cx="15.164790275519598" cy="113.67580366949126" r="3.0434782608695654"></circle><circle cx="79.18435050890238" cy="137.98346600545054" r="3.0434782608695654"></circle><circle cx="36.61800521977182" cy="121.484101395542" r="3.0434782608695654"></circle><circle cx="58.07257247868754" cy="129.2928711568354" r="3.0434782608695654"></circle><circle cx="44.45252481700339" cy="122.35990953559227" r="3.0434782608695654"></circle><circle cx="23.34797609231319" cy="113.66195317139814" r="3.0434782608695654"></circle><circle cx="65.92382924536612" cy="130.15580391548693" r="3.0434782608695654"></circle><circle cx="87.40633391625904" cy="137.94580117357907" r="3.0434782608695654"></circle><circle cx="31.591567047188622" cy="113.65475387682315" r="3.0434782608695654"></circle><circle cx="53.10364269873533" cy="121.42034439778661" r="3.0434782608695654"></circle><circle cx="18.37144287623521" cy="105.89539511306816" r="3.0434782608695654"></circle><circle cx="74.19807546022484" cy="130.15786053035077" r="3.0434782608695654"></circle><circle cx="95.29558988134619" cy="138.89657900368115" r="3.0434782608695654"></circle><circle cx="39.90547539157301" cy="113.65672568552569" r="3.0434782608695654"></circle><circle cx="26.71239866244059" cy="105.92410236849315" r="3.0434782608695654"></circle><circle cx="61.473468232957885" cy="121.40063882111833" r="3.0434782608695654"></circle><circle cx="47.80627902407956" cy="114.70588963210554" r="3.0434782608695654"></circle><circle cx="82.57880549354861" cy="130.1760635109857" r="3.0434782608695654"></circle><circle cx="35.12956769129743" cy="105.96754365031772" r="3.0434782608695654"></circle><circle cx="69.40928516358049" cy="122.47178006733677" r="3.0434782608695654"></circle><circle cx="21.956560134730534" cy="98.28196537021387" r="3.0434782608695654"></circle><circle cx="56.79584339995168" cy="113.70335424967669" r="3.0434782608695654"></circle></g><g style="fill: #00c000;" id="group-2"><circle cx="43.63526332699971" cy="106.03019616070364" r="3.0434782608695654"></circle><circle cx="30.471322953727693" cy="98.370019866245" r="3.0434782608695654"></circle><circle cx="91.09329595451874" cy="130.2190999991976" r="3.0434782608695654"></circle><circle cx="77.9365025045225" cy="122.5545720097221" r="3.0434782608695654"></circle><circle cx="51.60831835815442" cy="107.26437198671906" r="3.0434782608695654"></circle><circle cx="65.40632485605212" cy="113.75956154402348" r="3.0434782608695654"></circle><circle cx="39.07926313697689" cy="98.48352364028405" r="3.0434782608695654"></circle><circle cx="25.911479261784653" cy="90.8539109206961" r="3.0434782608695654"></circle><circle cx="99.09952106699564" cy="131.46418373636988" r="3.0434782608695654"></circle><circle cx="73.43521770880618" cy="115.05662716277384" r="3.0434782608695654"></circle><circle cx="86.60813656148082" cy="122.67657356177173" r="3.0434782608695654"></circle><circle cx="34.61474879023776" cy="91.01980241260854" r="3.0434782608695654"></circle><circle cx="47.79515719538605" cy="98.62948311127401" r="3.0434782608695654"></circle><circle cx="60.97597019904909" cy="106.23938594136006" r="3.0434782608695654"></circle><circle cx="55.84524280488258" cy="100.06158369348363" r="3.0434782608695654"></circle><circle cx="30.22664390866108" cy="83.62918031832154" r="3.0434782608695654"></circle><circle cx="43.4290278458202" cy="91.22472232037553" r="3.0434782608695654"></circle><circle cx="82.24738046037493" cy="115.26059063168138" r="3.0434782608695654"></circle><circle cx="69.85271382915953" cy="106.40544376741833" r="3.0434782608695654"></circle><circle cx="95.46014088849033" cy="122.85525145156959" r="3.0434782608695654"></circle><circle cx="39.131653074899475" cy="83.89300439655639" r="3.0434782608695654"></circle><circle cx="52.37153694101093" cy="91.47881747372178" r="3.0434782608695654"></circle><circle cx="77.98101974294411" cy="107.94830040303748" r="3.0434782608695654"></circle><circle cx="65.62676826323319" cy="99.0592494294079" r="3.0434782608695654"></circle><circle cx="34.89162725830082" cy="76.6252308214931" r="3.0434782608695654"></circle><circle cx="103.59452844920314" cy="124.42818341597426" r="3.0434782608695654"></circle><circle cx="91.24466471611899" cy="115.53651298607535" r="3.0434782608695654"></circle><circle cx="60.502119628598194" cy="93.1229104620083" r="3.0434782608695654"></circle><circle cx="48.16605871506206" cy="84.21250525527728" r="3.0434782608695654"></circle><circle cx="44.010019115160446" cy="77.00858582592687" r="3.0434782608695654"></circle><circle cx="74.79180033151668" cy="99.37274530277584" r="3.0434782608695654"></circle><circle cx="87.10528508407468" cy="108.31893407431004" r="3.0434782608695654"></circle><circle cx="57.34941887700436" cy="84.60161149545225" r="3.0434782608695654"></circle><circle cx="39.89515721984519" cy="69.85898621089356" r="3.0434782608695654"></circle><circle cx="100.47148485686488" cy="115.91392364340547" r="3.0434782608695654"></circle><circle cx="70.72903991099469" cy="92.19258306234617" r="3.0434782608695654"></circle><circle cx="53.276412762246714" cy="77.46751221327732" r="3.0434782608695654"></circle><circle cx="83.0234231239585" cy="101.1831844690796" r="3.0434782608695654"></circle></g><g style="fill: #ff8080;" id="group-3"><circle cx="65.5625360016686" cy="86.47280714735125" r="3.0434782608695654"></circle><circle cx="49.236868591984106" cy="70.38486188655348" r="3.0434782608695654"></circle><circle cx="96.45653989481691" cy="108.8049295560763" r="3.0434782608695654"></circle><circle cx="45.22514366561015" cy="63.34679589622206" r="3.0434782608695654"></circle><circle cx="108.73968484741775" cy="117.8526410419477" r="3.0434782608695654"></circle><circle cx="62.71250474396684" cy="78.02038207992332" r="3.0434782608695654"></circle><circle cx="80.20044086788867" cy="92.69441985992229" r="3.0434782608695654"></circle><circle cx="92.48156593542704" cy="101.77054211132841" r="3.0434782608695654"></circle><circle cx="58.74504816501994" cy="71.00959641514702" r="3.0434782608695654"></circle><circle cx="76.26172385678298" cy="85.66773123873323" r="3.0434782608695654"></circle><circle cx="71.00865685032545" cy="80.13471156064101" r="3.0434782608695654"></circle><circle cx="54.79829608714089" cy="64.03945421686716" r="3.0434782608695654"></circle><circle cx="88.53661780618744" cy="94.79590728293849" r="3.0434782608695654"></circle><circle cx="50.86870764469935" cy="57.1043954107945" r="3.0434782608695654"></circle><circle cx="106.08672172348929" cy="109.45136106796696" r="3.0434782608695654"></circle><circle cx="68.44323507267721" cy="71.75667706325505" r="3.0434782608695654"></circle><circle cx="102.20795975896928" cy="102.52806506019952" r="3.0434782608695654"></circle><circle cx="86.05329171400149" cy="86.40176063305259" r="3.0434782608695654"></circle><circle cx="64.55586853524693" cy="64.8577660981471" r="3.0434782608695654"></circle><circle cx="60.679506076938075" cy="57.98924402760008" r="3.0434782608695654"></circle><circle cx="76.82128771310046" cy="74.13096186419567" r="3.0434782608695654"></circle><circle cx="82.20198214831167" cy="79.51162740643701" r="3.0434782608695654"></circle><circle cx="98.34451534931023" cy="95.65403516179376" r="3.0434782608695654"></circle><circle cx="114.48814345428909" cy="111.79742712997118" r="3.0434782608695654"></circle><circle cx="56.81221250266593" cy="51.14686838946533" r="3.0434782608695654"></circle><circle cx="94.49238395164113" cy="88.81916276125922" r="3.0434782608695654"></circle><circle cx="74.52284667617229" cy="65.831004663697" r="3.0434782608695654"></circle><circle cx="70.69177029714126" cy="59.03012856715847" r="3.0434782608695654"></circle><circle cx="66.86485229396979" cy="52.25032719131022" r="3.0434782608695654"></circle><circle cx="112.26035210253475" cy="103.51992885873761" r="3.0434782608695654"></circle><circle cx="92.3229276717738" cy="80.52425366756461" r="3.0434782608695654"></circle><circle cx="63.04129683202847" cy="45.488610121744664" r="3.0434782608695654"></circle><circle cx="82.97994239032492" cy="68.48271784227583" r="3.0434782608695654"></circle><circle cx="88.52529443763396" cy="73.74968288606954" r="3.0434782608695654"></circle><circle cx="108.45941563379452" cy="96.74903765080967" r="3.0434782608695654"></circle><circle cx="104.65955543781611" cy="90.00548651864445" r="3.0434782608695654"></circle><circle cx="80.93143408296118" cy="60.26276633494491" r="3.0434782608695654"></circle><circle cx="100.8602363760631" cy="83.28354346821361" r="3.0434782608695654"></circle><circle cx="77.13469302995044" cy="53.543836897619286" r="3.0434782608695654"></circle><circle cx="73.33787935217164" cy="46.83797142120542" r="3.0434782608695654"></circle><circle cx="120.7875643772901" cy="106.31767458906525" r="3.0434782608695654"></circle><circle cx="69.54090917402183" cy="40.14329276817741" r="3.0434782608695654"></circle><circle cx="89.462915146268" cy="63.20988632494554" r="3.0434782608695654"></circle><circle cx="98.97997057788649" cy="75.0894396948029" r="3.0434782608695654"></circle><circle cx="95.20555919685317" cy="68.40568197749714" r="3.0434782608695654"></circle><circle cx="118.94235203290182" cy="98.16768848293877" r="3.0434782608695654"></circle><circle cx="87.64801471023385" cy="55.070193243154904" r="3.0434782608695654"></circle><circle cx="83.86567262702073" cy="48.41503944714137" r="3.0434782608695654"></circle><circle cx="115.16796390834013" cy="91.50754564934135" r="3.0434782608695654"></circle><circle cx="80.0813665244394" cy="41.76657565318848" r="3.0434782608695654"></circle><circle cx="111.38944202008928" cy="84.85820959941826" r="3.0434782608695654"></circle><circle cx="76.29534438773247" cy="35.12383232403355" r="3.0434782608695654"></circle><circle cx="107.6075805903926" cy="78.21738402440305" r="3.0434782608695654"></circle><circle cx="96.24735720944214" cy="58.33105102788085" r="3.0434782608695654"></circle><circle cx="105.99322696352648" cy="70.12278508212539" r="3.0434782608695654"></circle><circle cx="102.21520146066734" cy="63.501683782408016" r="3.0434782608695654"></circle><circle cx="127.58059119504915" cy="101.46327673475687" r="3.0434782608695654"></circle><circle cx="94.65059756367818" cy="50.27028657563694" r="3.0434782608695654"></circle><circle cx="90.86489711477152" cy="43.6588323244149" r="3.0434782608695654"></circle><circle cx="87.077373556348" cy="37.04963173918167" r="3.0434782608695654"></circle><circle cx="83.28828159873879" cy="30.442357410134882" r="3.0434782608695654"></circle><circle cx="126.07857831455073" cy="93.4380083069798" r="3.0434782608695654"></circle><circle cx="122.28752103136202" cy="86.83959484353872" r="3.0434782608695654"></circle><circle cx="118.49448427714957" cy="80.2425614738732" r="3.0434782608695654"></circle><circle cx="114.6998796389143" cy="73.64661607327123" r="3.0434782608695654"></circle><circle cx="103.30935730145592" cy="53.86340705539949" r="3.0434782608695654"></circle></g><g style="fill: #e1a5e1;" id="group-4"><circle cx="90.50282363556047" cy="26.110179966230685" r="3.0434782608695654"></circle><circle cx="94.30728839408819" cy="32.69968855364192" r="3.0434782608695654"></circle><circle cx="98.11176496728308" cy="39.28921495530349" r="3.0434782608695654"></circle><circle cx="101.91625523897255" cy="45.878761876666005" r="3.0434782608695654"></circle><circle cx="109.52528665100667" cy="59.057931148195664" r="3.0434782608695654"></circle><circle cx="113.32983422026105" cy="65.64756250299246" r="3.0434782608695654"></circle><circle cx="134.80537318933196" cy="97.2784330089059" r="3.0434782608695654"></circle><circle cx="110.62402591059585" cy="49.822700297551926" r="3.0434782608695654"></circle><circle cx="97.92153785862558" cy="22.13776791773539" r="3.0434782608695654"></circle><circle cx="122.1008308801182" cy="69.5946355473952" r="3.0434782608695654"></circle><circle cx="101.75187669964666" cy="28.728318608755988" r="3.0434782608695654"></circle><circle cx="105.58494574485258" cy="35.31904887691709" r="3.0434782608695654"></circle><circle cx="125.93277883623956" cy="76.18576382724696" r="3.0434782608695654"></circle><circle cx="109.42119898921165" cy="41.90999759266231" r="3.0434782608695654"></circle><circle cx="129.76918007663912" cy="82.77725115010391" r="3.0434782608695654"></circle><circle cx="133.61120722238093" cy="89.36921218936993" r="3.0434782608695654"></circle><circle cx="117.10564001391417" cy="55.09276710902348" r="3.0434782608695654"></circle><circle cx="120.9554145871407" cy="61.68474188623324" r="3.0434782608695654"></circle><circle cx="105.52649828309997" cy="18.534719881875045" r="3.0434782608695654"></circle><circle cx="118.16558301312133" cy="46.223171934863444" r="3.0434782608695654"></circle><circle cx="109.39133302149948" cy="25.14608726713346" r="3.0434782608695654"></circle><circle cx="113.26244287803696" cy="31.76001988094775" r="3.0434782608695654"></circle><circle cx="117.1408566124845" cy="38.376987995211245" r="3.0434782608695654"></circle></g><g style="fill: #ff9900;" id="group-5"><circle cx="129.77255180539805" cy="66.08218291406635" r="3.0434782608695654"></circle><circle cx="124.9249711756559" cy="51.622559168985475" r="3.0434782608695654"></circle><circle cx="133.66045690413998" cy="72.71174241505759" r="3.0434782608695654"></circle><circle cx="142.39612849773454" cy="93.80124654242677" r="3.0434782608695654"></circle><circle cx="128.83423623748035" cy="58.25289215547713" r="3.0434782608695654"></circle><circle cx="137.56154670311665" cy="79.34842034180724" r="3.0434782608695654"></circle><circle cx="113.29932889379634" cy="15.309741974359929" r="3.0434782608695654"></circle><circle cx="117.20533348468678" cy="21.962524633901857" r="3.0434782608695654"></circle><circle cx="141.4792030428289" cy="85.99426894848875" r="3.0434782608695654"></circle><circle cx="125.90744893310557" cy="43.077508246317194" r="3.0434782608695654"></circle><circle cx="121.12165841238193" cy="28.622603617696214" r="3.0434782608695654"></circle><circle cx="125.04995290459041" cy="35.291300636058835" r="3.0434782608695654"></circle><circle cx="137.67577394445811" cy="63.127237013135726" r="3.0434782608695654"></circle><circle cx="132.95100330391455" cy="48.66163173991058" r="3.0434782608695654"></circle><circle cx="121.22124804750048" cy="12.470626772626279" r="3.0434782608695654"></circle><circle cx="125.17308986009118" cy="19.186100202983113" r="3.0434782608695654"></circle><circle cx="136.92938071050094" cy="55.36809421917809" r="3.0434782608695654"></circle><circle cx="141.63194299193574" cy="69.84098595629297" r="3.0434782608695654"></circle><circle cx="129.13945952326904" cy="25.916034762029955" r="3.0434782608695654"></circle><circle cx="133.82233802059258" cy="40.39679589747572" r="3.0434782608695654"></circle><circle cx="145.61109220204162" cy="76.57665635219658" r="3.0434782608695654"></circle><circle cx="150.28374305956478" cy="91.06337722510877" r="3.0434782608695654"></circle><circle cx="133.12259241347925" cy="32.66303847338124" r="3.0434782608695654"></circle><circle cx="129.2731138554245" cy="10.024234486478449" r="3.0434782608695654"></circle><circle cx="149.6188126367062" cy="83.34052522140867" r="3.0434782608695654"></circle><circle cx="133.27340486907633" cy="16.824200325001232" r="3.0434782608695654"></circle><circle cx="141.15060634091162" cy="46.22220701269398" r="3.0434782608695654"></circle><circle cx="145.77004386490276" cy="60.74492303052527" r="3.0434782608695654"></circle><circle cx="137.29224660509973" cy="23.648279832029914" r="3.0434782608695654"></circle><circle cx="145.20291590328267" cy="53.04386561894237" r="3.0434782608695654"></circle><circle cx="141.8823548179092" cy="38.190482866325105" r="3.0434782608695654"></circle><circle cx="149.80022370535238" cy="67.59042529719376" r="3.0434782608695654"></circle><circle cx="141.33234422446765" cy="30.500806793331904" r="3.0434782608695654"></circle><circle cx="137.43547043612858" cy="7.976476381629277" r="3.0434782608695654"></circle><circle cx="153.86252120587537" cy="74.48099947473393" r="3.0434782608695654"></circle><circle cx="141.48472857635315" cy="14.883108556765173" r="3.0434782608695654"></circle></g><g style="fill: #ffeb00;" id="group-6"><circle cx="149.48993375849543" cy="44.31435450622962" r="3.0434782608695654"></circle><circle cx="158.39639990149212" cy="89.08975344134538" r="3.0434782608695654"></circle><circle cx="145.55602273440348" cy="21.826013740331316" r="3.0434782608695654"></circle><circle cx="157.96408202091214" cy="81.42948387837312" r="3.0434782608695654"></circle><circle cx="154.0139302371733" cy="58.94743507845217" r="3.0434782608695654"></circle><circle cx="150.05909237520083" cy="36.46634514455567" r="3.0434782608695654"></circle><circle cx="145.68859492714938" cy="6.332300496192561" r="3.0434782608695654"></circle><circle cx="149.65232849863182" cy="28.81168503516959" r="3.0434782608695654"></circle><circle cx="153.61607381242675" cy="51.29109718924088" r="3.0434782608695654"></circle><circle cx="149.78521572104822" cy="13.367988944605122" r="3.0434782608695654"></circle><circle cx="158.11712501542044" cy="65.97333355828466" r="3.0434782608695654"></circle><circle cx="153.90646430241162" cy="20.45460014717778" r="3.0434782608695654"></circle><circle cx="157.93456227069325" cy="42.94594950219614" r="3.0434782608695654"></circle><circle cx="162.25915153305297" cy="73.07584556783019" r="3.0434782608695654"></circle><circle cx="154.01254514173974" cy="5.095679684641608" r="3.0434782608695654"></circle><circle cx="158.32373236868395" cy="35.23045933163811" r="3.0434782608695654"></circle><circle cx="158.05530448103949" cy="27.601203612215848" r="3.0434782608695654"></circle><circle cx="162.3652359049492" cy="57.743973778646584" r="3.0434782608695654"></circle><circle cx="158.1527838334506" cy="12.282872286034621" r="3.0434782608695654"></circle><circle cx="162.12943219256687" cy="50.11800202530514" r="3.0434782608695654"></circle><circle cx="166.66023303330002" cy="87.8983450964269" r="3.0434782608695654"></circle><circle cx="166.44739078324045" cy="80.2766297884031" r="3.0434782608695654"></circle><circle cx="162.31899260919727" cy="19.53807567301715" r="3.0434782608695654"></circle><circle cx="166.53359637420877" cy="64.99924785355698" r="3.0434782608695654"></circle><circle cx="162.38720775556595" cy="4.269602018122845" r="3.0434782608695654"></circle><circle cx="166.44963392701894" cy="42.12264053727065" r="3.0434782608695654"></circle><circle cx="166.64714666875716" cy="34.48718121828568" r="3.0434782608695654"></circle><circle cx="166.5137596906696" cy="26.873325804533003" r="3.0434782608695654"></circle><circle cx="166.56517198282506" cy="11.630645406287886" r="3.0434782608695654"></circle><circle cx="170.7433035592914" cy="72.37084716425763" r="3.0434782608695654"></circle><circle cx="170.78121387551005" cy="57.1406991680499" r="3.0434782608695654"></circle><circle cx="170.70309928051765" cy="49.530076998332625" r="3.0434782608695654"></circle><circle cx="170.76884620865053" cy="19.0791380171079" r="3.0434782608695654"></circle><circle cx="170.79234690692843" cy="3.856063564320858" r="3.0434782608695654"></circle><circle cx="175" cy="87.5" r="3.0434782608695654"></circle><circle cx="175" cy="79.8913043478261" r="3.0434782608695654"></circle><circle cx="175" cy="64.67391304347825" r="3.0434782608695654"></circle><circle cx="175" cy="41.847826086956516" r="3.0434782608695654"></circle><circle cx="175" cy="34.2391304347826" r="3.0434782608695654"></circle><circle cx="175" cy="26.6304347826087" r="3.0434782608695654"></circle><circle cx="175" cy="11.413043478260882" r="3.0434782608695654"></circle><circle cx="179.2076530930716" cy="3.856063564320858" r="3.0434782608695654"></circle><circle cx="179.23115379134953" cy="19.0791380171079" r="3.0434782608695654"></circle><circle cx="179.29690071948232" cy="49.530076998332625" r="3.0434782608695654"></circle><circle cx="179.21878612448998" cy="57.1406991680499" r="3.0434782608695654"></circle><circle cx="179.25669644070865" cy="72.37084716425763" r="3.0434782608695654"></circle><circle cx="183.43482801717494" cy="11.630645406287886" r="3.0434782608695654"></circle><circle cx="183.48624030933047" cy="26.873325804533025" r="3.0434782608695654"></circle><circle cx="183.3528533312429" cy="34.48718121828568" r="3.0434782608695654"></circle><circle cx="183.55036607298106" cy="42.12264053727065" r="3.0434782608695654"></circle><circle cx="187.6127922444341" cy="4.269602018122845" r="3.0434782608695654"></circle><circle cx="183.46640362579123" cy="64.99924785355698" r="3.0434782608695654"></circle><circle cx="187.6810073908028" cy="19.53807567301715" r="3.0434782608695654"></circle><circle cx="183.55260921675958" cy="80.2766297884031" r="3.0434782608695654"></circle><circle cx="183.33976696669998" cy="87.8983450964269" r="3.0434782608695654"></circle><circle cx="187.87056780743313" cy="50.11800202530514" r="3.0434782608695654"></circle><circle cx="191.8472161665494" cy="12.282872286034621" r="3.0434782608695654"></circle><circle cx="187.6347640950508" cy="57.743973778646584" r="3.0434782608695654"></circle><circle cx="191.94469551896057" cy="27.601203612215848" r="3.0434782608695654"></circle><circle cx="191.67626763131608" cy="35.23045933163812" r="3.0434782608695654"></circle><circle cx="195.9874548582603" cy="5.095679684641608" r="3.0434782608695654"></circle><circle cx="187.74084846694703" cy="73.07584556783019" r="3.0434782608695654"></circle><circle cx="192.0654377293068" cy="42.94594950219614" r="3.0434782608695654"></circle><circle cx="196.0935356975884" cy="20.45460014717778" r="3.0434782608695654"></circle><circle cx="191.88287498457962" cy="65.9733335582847" r="3.0434782608695654"></circle><circle cx="200.21478427895178" cy="13.367988944605122" r="3.0434782608695654"></circle><circle cx="196.38392618757322" cy="51.29109718924088" r="3.0434782608695654"></circle><circle cx="200.34767150136824" cy="28.81168503516961" r="3.0434782608695654"></circle><circle cx="204.31140507285062" cy="6.332300496192561" r="3.0434782608695654"></circle><circle cx="199.94090762479922" cy="36.46634514455567" r="3.0434782608695654"></circle><circle cx="195.98606976282673" cy="58.94743507845217" r="3.0434782608695654"></circle><circle cx="192.03591797908786" cy="81.42948387837312" r="3.0434782608695654"></circle><circle cx="204.4439772655966" cy="21.826013740331316" r="3.0434782608695654"></circle><circle cx="191.60360009850788" cy="89.08975344134538" r="3.0434782608695654"></circle><circle cx="200.51006624150457" cy="44.31435450622962" r="3.0434782608695654"></circle><circle cx="208.51527142364685" cy="14.883108556765173" r="3.0434782608695654"></circle><circle cx="196.13747879412466" cy="74.48099947473395" r="3.0434782608695654"></circle><circle cx="212.56452956387142" cy="7.976476381629258" r="3.0434782608695654"></circle><circle cx="208.6676557755324" cy="30.500806793331922" r="3.0434782608695654"></circle><circle cx="200.19977629464765" cy="67.59042529719379" r="3.0434782608695654"></circle><circle cx="208.1176451820908" cy="38.190482866325105" r="3.0434782608695654"></circle><circle cx="204.7970840967173" cy="53.04386561894237" r="3.0434782608695654"></circle><circle cx="212.70775339490032" cy="23.648279832029914" r="3.0434782608695654"></circle><circle cx="204.2299561350973" cy="60.74492303052527" r="3.0434782608695654"></circle><circle cx="208.8493936590884" cy="46.22220701269398" r="3.0434782608695654"></circle><circle cx="216.7265951309237" cy="16.824200325001232" r="3.0434782608695654"></circle><circle cx="200.3811873632938" cy="83.34052522140867" r="3.0434782608695654"></circle><circle cx="220.72688614457556" cy="10.024234486478449" r="3.0434782608695654"></circle><circle cx="216.8774075865208" cy="32.663038473381256" r="3.0434782608695654"></circle><circle cx="199.71625694043522" cy="91.06337722510877" r="3.0434782608695654"></circle><circle cx="204.3889077979584" cy="76.57665635219658" r="3.0434782608695654"></circle><circle cx="216.17766197940747" cy="40.39679589747574" r="3.0434782608695654"></circle><circle cx="220.86054047673102" cy="25.916034762029973" r="3.0434782608695654"></circle></g><g style="fill: #0001b8;" id="group-7"><circle cx="208.3680570080643" cy="69.840985956293" r="3.0434782608695654"></circle><circle cx="213.07061928949906" cy="55.36809421917809" r="3.0434782608695654"></circle><circle cx="224.82691013990876" cy="19.186100202983113" r="3.0434782608695654"></circle><circle cx="228.77875195249953" cy="12.470626772626279" r="3.0434782608695654"></circle><circle cx="217.04899669608548" cy="48.66163173991058" r="3.0434782608695654"></circle><circle cx="212.32422605554189" cy="63.127237013135726" r="3.0434782608695654"></circle><circle cx="224.95004709540964" cy="35.29130063605886" r="3.0434782608695654"></circle><circle cx="228.8783415876181" cy="28.622603617696214" r="3.0434782608695654"></circle><circle cx="224.09255106689443" cy="43.077508246317194" r="3.0434782608695654"></circle><circle cx="208.52079695717111" cy="85.99426894848875" r="3.0434782608695654"></circle><circle cx="232.7946665153132" cy="21.962524633901857" r="3.0434782608695654"></circle><circle cx="236.70067110620369" cy="15.309741974359948" r="3.0434782608695654"></circle><circle cx="212.43845329688335" cy="79.34842034180726" r="3.0434782608695654"></circle><circle cx="221.16576376251965" cy="58.25289215547713" r="3.0434782608695654"></circle><circle cx="207.60387150226546" cy="93.80124654242677" r="3.0434782608695654"></circle><circle cx="216.33954309586005" cy="72.7117424150576" r="3.0434782608695654"></circle><circle cx="225.07502882434412" cy="51.6225591689855" r="3.0434782608695654"></circle><circle cx="220.22744819460195" cy="66.08218291406638" r="3.0434782608695654"></circle><circle cx="232.85914338751553" cy="38.376987995211266" r="3.0434782608695654"></circle><circle cx="236.7375571219631" cy="31.76001988094777" r="3.0434782608695654"></circle><circle cx="240.60866697850054" cy="25.14608726713348" r="3.0434782608695654"></circle><circle cx="231.83441698687867" cy="46.223171934863466" r="3.0434782608695654"></circle><circle cx="244.47350171690007" cy="18.534719881875063" r="3.0434782608695654"></circle><circle cx="229.04458541285928" cy="61.68474188623324" r="3.0434782608695654"></circle><circle cx="232.89435998608582" cy="55.09276710902348" r="3.0434782608695654"></circle><circle cx="216.3887927776191" cy="89.36921218936995" r="3.0434782608695654"></circle><circle cx="220.2308199233609" cy="82.77725115010395" r="3.0434782608695654"></circle><circle cx="240.5788010107884" cy="41.90999759266233" r="3.0434782608695654"></circle><circle cx="224.06722116376045" cy="76.18576382724696" r="3.0434782608695654"></circle><circle cx="244.41505425514748" cy="35.31904887691711" r="3.0434782608695654"></circle><circle cx="248.24812330035337" cy="28.728318608756005" r="3.0434782608695654"></circle><circle cx="227.89916911988186" cy="69.59463554739521" r="3.0434782608695654"></circle><circle cx="252.0784621413745" cy="22.137767917735427" r="3.0434782608695654"></circle><circle cx="239.37597408940417" cy="49.822700297551926" r="3.0434782608695654"></circle></g><g style="fill: #0066cc;" id="group-8"><circle cx="215.19462681066807" cy="97.2784330089059" r="3.0434782608695654"></circle><circle cx="236.6701657797389" cy="65.64756250299241" r="3.0434782608695654"></circle><circle cx="240.47471334899333" cy="59.057931148195685" r="3.0434782608695654"></circle><circle cx="248.0837447610275" cy="45.87876187666602" r="3.0434782608695654"></circle><circle cx="251.88823503271698" cy="39.289214955303535" r="3.0434782608695654"></circle><circle cx="255.6927116059118" cy="32.699688553641906" r="3.0434782608695654"></circle><circle cx="259.4971763644396" cy="26.110179966230703" r="3.0434782608695654"></circle><circle cx="246.69064269854408" cy="53.86340705539951" r="3.0434782608695654"></circle><circle cx="235.30012036108573" cy="73.64661607327126" r="3.0434782608695654"></circle><circle cx="231.50551572285045" cy="80.24256147387322" r="3.0434782608695654"></circle><circle cx="227.712478968638" cy="86.83959484353872" r="3.0434782608695654"></circle><circle cx="223.9214216854493" cy="93.43800830697981" r="3.0434782608695654"></circle><circle cx="266.7117184012613" cy="30.44235741013492" r="3.0434782608695654"></circle><circle cx="262.92262644365206" cy="37.04963173918169" r="3.0434782608695654"></circle><circle cx="259.1351028852285" cy="43.65883232441494" r="3.0434782608695654"></circle><circle cx="255.34940243632187" cy="50.27028657563698" r="3.0434782608695654"></circle><circle cx="222.41940880495085" cy="101.46327673475687" r="3.0434782608695654"></circle><circle cx="247.78479853933268" cy="63.501683782408016" r="3.0434782608695654"></circle><circle cx="244.00677303647348" cy="70.12278508212536" r="3.0434782608695654"></circle><circle cx="253.75264279055787" cy="58.33105102788087" r="3.0434782608695654"></circle><circle cx="242.39241940960744" cy="78.21738402440309" r="3.0434782608695654"></circle><circle cx="273.70465561226763" cy="35.12383232403361" r="3.0434782608695654"></circle><circle cx="238.61055797991074" cy="84.85820959941827" r="3.0434782608695654"></circle><circle cx="269.9186334755606" cy="41.76657565318848" r="3.0434782608695654"></circle><circle cx="234.8320360916599" cy="91.50754564934137" r="3.0434782608695654"></circle><circle cx="266.1343273729793" cy="48.41503944714139" r="3.0434782608695654"></circle><circle cx="262.3519852897662" cy="55.07019324315496" r="3.0434782608695654"></circle><circle cx="231.0576479670982" cy="98.16768848293883" r="3.0434782608695654"></circle><circle cx="254.79444080314687" cy="68.40568197749718" r="3.0434782608695654"></circle><circle cx="251.02002942211348" cy="75.08943969480288" r="3.0434782608695654"></circle><circle cx="260.53708485373204" cy="63.20988632494558" r="3.0434782608695654"></circle><circle cx="280.4590908259782" cy="40.143292768177474" r="3.0434782608695654"></circle><circle cx="229.21243562270993" cy="106.31767458906526" r="3.0434782608695654"></circle><circle cx="276.6621206478284" cy="46.83797142120544" r="3.0434782608695654"></circle><circle cx="272.8653069700496" cy="53.54383689761931" r="3.0434782608695654"></circle><circle cx="249.13976362393694" cy="83.28354346821361" r="3.0434782608695654"></circle><circle cx="269.0685659170389" cy="60.26276633494497" r="3.0434782608695654"></circle><circle cx="245.34044456218393" cy="90.00548651864447" r="3.0434782608695654"></circle><circle cx="241.5405843662055" cy="96.74903765080971" r="3.0434782608695654"></circle><circle cx="261.474705562366" cy="73.74968288606954" r="3.0434782608695654"></circle><circle cx="267.0200576096751" cy="68.48271784227586" r="3.0434782608695654"></circle><circle cx="286.95870316797163" cy="45.488610121744706" r="3.0434782608695654"></circle><circle cx="257.6770723282262" cy="80.52425366756458" r="3.0434782608695654"></circle><circle cx="237.73964789746526" cy="103.51992885873766" r="3.0434782608695654"></circle><circle cx="283.13514770603024" cy="52.250327191310255" r="3.0434782608695654"></circle><circle cx="279.3082297028588" cy="59.03012856715851" r="3.0434782608695654"></circle><circle cx="275.47715332382774" cy="65.831004663697" r="3.0434782608695654"></circle></g><g style="fill: #162561;" id="group-9"><circle cx="255.50761604835893" cy="88.81916276125924" r="3.0434782608695654"></circle><circle cx="293.1877874973341" cy="51.14686838946539" r="3.0434782608695654"></circle><circle cx="235.5118565457109" cy="111.79742712997118" r="3.0434782608695654"></circle><circle cx="251.6554846506898" cy="95.65403516179376" r="3.0434782608695654"></circle><circle cx="267.7980178516883" cy="79.51162740643703" r="3.0434782608695654"></circle><circle cx="273.17871228689955" cy="74.1309618641957" r="3.0434782608695654"></circle><circle cx="289.32049392306203" cy="57.98924402760014" r="3.0434782608695654"></circle><circle cx="285.4441314647531" cy="64.85776609814711" r="3.0434782608695654"></circle><circle cx="263.94670828599845" cy="86.40176063305259" r="3.0434782608695654"></circle><circle cx="247.79204024103075" cy="102.52806506019954" r="3.0434782608695654"></circle><circle cx="281.55676492732283" cy="71.75667706325507" r="3.0434782608695654"></circle><circle cx="243.91327827651074" cy="109.45136106796699" r="3.0434782608695654"></circle><circle cx="299.1312923553007" cy="57.10439541079456" r="3.0434782608695654"></circle><circle cx="261.4633821938126" cy="94.79590728293854" r="3.0434782608695654"></circle><circle cx="295.2017039128591" cy="64.03945421686717" r="3.0434782608695654"></circle><circle cx="278.99134314967455" cy="80.13471156064101" r="3.0434782608695654"></circle></g><g style="fill: #0d378a;" id="group-10"><circle cx="273.73827614321704" cy="85.66773123873327" r="3.0434782608695654"></circle><circle cx="291.25495183498015" cy="71.00959641514709" r="3.0434782608695654"></circle><circle cx="257.518434064573" cy="101.77054211132847" r="3.0434782608695654"></circle><circle cx="269.7995591321113" cy="92.69441985992225" r="3.0434782608695654"></circle><circle cx="287.2874952560332" cy="78.02038207992334" r="3.0434782608695654"></circle><circle cx="241.26031515258225" cy="117.85264104194772" r="3.0434782608695654"></circle><circle cx="304.77485633438994" cy="63.34679589622212" r="3.0434782608695654"></circle><circle cx="253.54346010518313" cy="108.80492955607635" r="3.0434782608695654"></circle><circle cx="300.7631314080159" cy="70.38486188655348" r="3.0434782608695654"></circle><circle cx="284.43746399833145" cy="86.4728071473513" r="3.0434782608695654"></circle><circle cx="266.9765768760415" cy="101.18318446907965" r="3.0434782608695654"></circle><circle cx="296.7235872377533" cy="77.46751221327736" r="3.0434782608695654"></circle><circle cx="279.27096008900526" cy="92.19258306234613" r="3.0434782608695654"></circle><circle cx="249.52851514313517" cy="115.91392364340548" r="3.0434782608695654"></circle><circle cx="310.10484278015485" cy="69.85898621089362" r="3.0434782608695654"></circle><circle cx="292.6505811229957" cy="84.60161149545229" r="3.0434782608695654"></circle><circle cx="262.8947149159253" cy="108.31893407431004" r="3.0434782608695654"></circle><circle cx="275.20819966848325" cy="99.37274530277581" r="3.0434782608695654"></circle><circle cx="305.98998088483955" cy="77.00858582592691" r="3.0434782608695654"></circle><circle cx="301.83394128493796" cy="84.21250525527734" r="3.0434782608695654"></circle><circle cx="289.49788037140183" cy="93.12291046200835" r="3.0434782608695654"></circle><circle cx="258.75533528388104" cy="115.53651298607538" r="3.0434782608695654"></circle><circle cx="246.40547155079688" cy="124.42818341597426" r="3.0434782608695654"></circle><circle cx="315.1083727416992" cy="76.62523082149316" r="3.0434782608695654"></circle><circle cx="284.3732317367668" cy="99.0592494294079" r="3.0434782608695654"></circle><circle cx="272.01898025705594" cy="107.94830040303754" r="3.0434782608695654"></circle><circle cx="297.6284630589891" cy="91.47881747372182" r="3.0434782608695654"></circle><circle cx="310.8683469251006" cy="83.89300439655645" r="3.0434782608695654"></circle><circle cx="254.53985911150968" cy="122.85525145156961" r="3.0434782608695654"></circle><circle cx="280.1472861708404" cy="106.4054437674183" r="3.0434782608695654"></circle><circle cx="267.7526195396251" cy="115.26059063168138" r="3.0434782608695654"></circle><circle cx="306.5709721541798" cy="91.22472232037556" r="3.0434782608695654"></circle><circle cx="319.77335609133894" cy="83.6291803183216" r="3.0434782608695654"></circle><circle cx="294.15475719511744" cy="100.06158369348367" r="3.0434782608695654"></circle><circle cx="289.0240298009509" cy="106.23938594136007" r="3.0434782608695654"></circle><circle cx="302.204842804614" cy="98.62948311127407" r="3.0434782608695654"></circle><circle cx="315.38525120976226" cy="91.01980241260857" r="3.0434782608695654"></circle><circle cx="263.3918634385192" cy="122.67657356177175" r="3.0434782608695654"></circle><circle cx="276.5647822911938" cy="115.05662716277385" r="3.0434782608695654"></circle><circle cx="250.9004789330044" cy="131.4641837363699" r="3.0434782608695654"></circle><circle cx="324.0885207382153" cy="90.85391092069611" r="3.0434782608695654"></circle><circle cx="310.92073686302314" cy="98.4835236402841" r="3.0434782608695654"></circle><circle cx="284.59367514394785" cy="113.75956154402347" r="3.0434782608695654"></circle><circle cx="298.3916816418456" cy="107.26437198671906" r="3.0434782608695654"></circle><circle cx="272.0634974954775" cy="122.55457200972214" r="3.0434782608695654"></circle><circle cx="258.90670404548126" cy="130.21909999919762" r="3.0434782608695654"></circle><circle cx="319.5286770462723" cy="98.37001986624502" r="3.0434782608695654"></circle><circle cx="306.3647366730003" cy="106.03019616070371" r="3.0434782608695654"></circle><circle cx="293.20415660004835" cy="113.70335424967674" r="3.0434782608695654"></circle><circle cx="328.0434398652695" cy="98.2819653702139" r="3.0434782608695654"></circle><circle cx="280.5907148364195" cy="122.47178006733681" r="3.0434782608695654"></circle><circle cx="314.87043230870256" cy="105.96754365031772" r="3.0434782608695654"></circle><circle cx="267.4211945064514" cy="130.17606351098573" r="3.0434782608695654"></circle><circle cx="302.1937209759205" cy="114.70588963210558" r="3.0434782608695654"></circle><circle cx="288.5265317670421" cy="121.4006388211183" r="3.0434782608695654"></circle><circle cx="323.2876013375594" cy="105.9241023684932" r="3.0434782608695654"></circle><circle cx="310.09452460842704" cy="113.6567256855257" r="3.0434782608695654"></circle><circle cx="254.7044101186538" cy="138.89657900368115" r="3.0434782608695654"></circle><circle cx="275.8019245397752" cy="130.1578605303508" r="3.0434782608695654"></circle><circle cx="331.6285571237648" cy="105.89539511306819" r="3.0434782608695654"></circle><circle cx="296.8963573012647" cy="121.42034439778662" r="3.0434782608695654"></circle><circle cx="318.40843295281144" cy="113.65475387682324" r="3.0434782608695654"></circle><circle cx="262.59366608374097" cy="137.94580117357913" r="3.0434782608695654"></circle><circle cx="284.0761707546339" cy="130.15580391548698" r="3.0434782608695654"></circle><circle cx="326.65202390768684" cy="113.66195317139818" r="3.0434782608695654"></circle><circle cx="305.5474751829966" cy="122.35990953559231" r="3.0434782608695654"></circle><circle cx="291.92742752131244" cy="129.29287115683533" r="3.0434782608695654"></circle><circle cx="313.3819947802282" cy="121.48410139554203" r="3.0434782608695654"></circle><circle cx="270.8156494910976" cy="137.9834660054506" r="3.0434782608695654"></circle><circle cx="334.8352097244804" cy="113.67580366949139" r="3.0434782608695654"></circle><circle cx="321.52432503992543" cy="121.52252777581553" r="3.0434782608695654"></circle><circle cx="300.0853911454544" cy="129.35850199918886" r="3.0434782608695654"></circle><circle cx="278.9458525697346" cy="138.0256143162731" r="3.0434782608695654"></circle><circle cx="329.61299410614396" cy="121.56298663305681" r="3.0434782608695654"></circle><circle cx="257.7826301972321" cy="146.65769703026373" r="3.0434782608695654"></circle><circle cx="308.4411241974363" cy="130.19945565419405" r="3.0434782608695654"></circle><circle cx="287.00330939137035" cy="138.06936726318824" r="3.0434782608695654"></circle><circle cx="337.65564936977876" cy="121.60439108553017" r="3.0434782608695654"></circle><circle cx="316.2163835659804" cy="129.48669540295228" r="3.0434782608695654"></circle><circle cx="265.5708703497165" cy="145.97274672393723" r="3.0434782608695654"></circle><circle cx="294.78042654196975" cy="137.3992772508131" r="3.0434782608695654"></circle><circle cx="324.2089372494636" cy="129.54770733197523" r="3.0434782608695654"></circle><circle cx="273.5519105994229" cy="146.04514904935849" r="3.0434782608695654"></circle><circle cx="302.7580943583108" cy="137.4850597267925" r="3.0434782608695654"></circle><circle cx="332.16263461999927" cy="129.6061829832964" r="3.0434782608695654"></circle><circle cx="340.0830609759691" cy="129.66199935974356" r="3.0434782608695654"></circle><circle cx="281.47673965648414" cy="146.111431754701" r="3.0434782608695654"></circle><circle cx="310.8644695612813" cy="138.19689807111604" r="3.0434782608695654"></circle><circle cx="318.5884107930592" cy="137.6383061315281" r="3.0434782608695654"></circle><circle cx="289.35714789496785" cy="146.17196374553498" r="3.0434782608695654"></circle><circle cx="326.454367690564" cy="137.70667122197895" r="3.0434782608695654"></circle><circle cx="297.0721602902754" cy="145.68187223060224" r="3.0434782608695654"></circle><circle cx="260.10711188019" cy="154.67687259763352" r="3.0434782608695654"></circle><circle cx="334.29416243056494" cy="137.7701442443011" r="3.0434782608695654"></circle><circle cx="304.9034344881253" cy="145.76647257071565" r="3.0434782608695654"></circle><circle cx="267.8141930230229" cy="154.23489556628968" r="3.0434782608695654"></circle><circle cx="342.1115791407282" cy="137.8291587350577" r="3.0434782608695654"></circle><circle cx="312.8089703679847" cy="146.32405037540943" r="3.0434782608695654"></circle><circle cx="275.6111814206626" cy="154.3057338977912" r="3.0434782608695654"></circle><circle cx="320.4903101231814" cy="145.91224410412116" r="3.0434782608695654"></circle><circle cx="283.37965939970593" cy="154.36762515991603" r="3.0434782608695654"></circle><circle cx="328.25400716051945" cy="145.97540434153137" r="3.0434782608695654"></circle><circle cx="336.0019068588201" cy="146.03315115741472" r="3.0434782608695654"></circle><circle cx="291.12563790779456" cy="154.42211941262929" r="3.0434782608695654"></circle><circle cx="343.7363023157874" cy="146.08613474392226" r="3.0434782608695654"></circle><circle cx="298.79189019563387" cy="154.10184564059395" r="3.0434782608695654"></circle><circle cx="306.51255594581977" cy="154.16855630622288" r="3.0434782608695654"></circle><circle cx="314.26777336422253" cy="154.55226900295082" r="3.0434782608695654"></circle><circle cx="321.9158544804474" cy="154.28141932762455" r="3.0434782608695654"></circle><circle cx="261.65669069026734" cy="162.8810908654557" r="3.0434782608695654"></circle><circle cx="329.6025585983123" cy="154.32956849145276" r="3.0434782608695654"></circle><circle cx="269.3054568110053" cy="162.66530080117658" r="3.0434782608695654"></circle><circle cx="337.28132465158524" cy="154.3732209646739" r="3.0434782608695654"></circle><circle cx="344.95330465063927" cy="154.41297589309187" r="3.0434782608695654"></circle><circle cx="276.97931604596545" cy="162.70847547423" r="3.0434782608695654"></circle><circle cx="284.64338895899425" cy="162.74550202069886" r="3.0434782608695654"></circle><circle cx="292.29972723697045" cy="162.77760501813847" r="3.0434782608695654"></circle><circle cx="299.9315579742204" cy="162.61974329945338" r="3.0434782608695654"></circle><circle cx="307.5788165592706" cy="162.65662860023" r="3.0434782608695654"></circle><circle cx="315.23573710369214" cy="162.85255418862508" r="3.0434782608695654"></circle><circle cx="322.8603764396313" cy="162.7184299892781" r="3.0434782608695654"></circle><circle cx="330.49605267599094" cy="162.74457401476397" r="3.0434782608695654"></circle><circle cx="338.12901206831305" cy="162.7681658913498" r="3.0434782608695654"></circle><circle cx="345.7596454786479" cy="162.7895618728109" r="3.0434782608695654"></circle></g><g style="fill: #dddddd;" id="group-11"><circle cx="262.4172576647091" cy="171.19565217391303" r="3.0434782608695654"></circle><circle cx="270.03257823649733" cy="171.19565217391303" r="3.0434782608695654"></circle><circle cx="277.64691624198286" cy="171.19565217391303" r="3.0434782608695654"></circle><circle cx="285.26047524274577" cy="171.19565217391303" r="3.0434782608695654"></circle><circle cx="292.8734061889214" cy="171.19565217391303" r="3.0434782608695654"></circle><circle cx="300.4858233883636" cy="171.19565217391303" r="3.0434782608695654"></circle><circle cx="308.09781499103406" cy="171.19565217391303" r="3.0434782608695654"></circle><circle cx="315.7094500677701" cy="171.19565217391303" r="3.0434782608695654"></circle><circle cx="323.3207835079625" cy="171.19565217391303" r="3.0434782608695654"></circle></g><g style="fill: #ffffff;" id="group-12"><circle cx="330.93185948199385" cy="171.19565217391303" r="3.0434782608695654"></circle><circle cx="338.5427139363399" cy="171.19565217391303" r="3.0434782608695654"></circle><circle cx="346.15337642263904" cy="171.19565217391303" r="3.0434782608695654"></circle></g><text x="50%" y="97.14285714285714%" style="font-size: 36px; font-size: 2.25rem; font-weight: bold; text-align: center; text-anchor: middle; font-family: sans-serif;">577</text></svg>