<?xml version="1.0" encoding="UTF-8" standalone="no"?>
<!DOCTYPE svg PUBLIC "-//W3C//DTD SVG 1.1//EN" "http://www.w3.org/Graphics/SVG/1.1/DTD/svg11.dtd">
<svg width="100%" height="100%" viewBox="0 0 295 296" version="1.1" xmlns="http://www.w3.org/2000/svg" xmlns:xlink="http://www.w3.org/1999/xlink" xml:space="preserve" xmlns:serif="http://www.serif.com/" style="fill-rule:evenodd;clip-rule:evenodd;stroke-linejoin:round;stroke-miterlimit:2;">
    <g transform="matrix(1,0,0,1,-2690.233756,-648.978716)">
        <g transform="matrix(1,0,0,0.9227,0,0)">
            <g transform="matrix(1.199957,0,0,1.318097,101.720233,462.872707)">
                <path d="M2280.033,182.441L2292.565,263.885L2347.14,202.145L2313.651,277.436L2392.941,255.002L2324.063,300.235L2402.894,324.23L2320.496,325.044L2373.84,387.85L2304.082,343.986L2315.003,425.662L2280.033,351.048L2245.063,425.662L2255.984,343.986L2186.226,387.85L2239.57,325.044L2157.172,324.23L2236.003,300.235L2167.125,255.002L2246.415,277.436L2212.926,202.145L2267.501,263.885L2280.033,182.441Z" style="fill:rgb(188,25,25);"/>
            </g>
        </g>
    </g>
</svg>
